<?xml version="1.0" standalone="no"?>
<svg xmlns:xlink="http://www.w3.org/1999/xlink" id="wave" style="transform:rotate(0deg); transition: 0.3s" viewBox="0 0 1440 490" version="1.1" xmlns="http://www.w3.org/2000/svg"><defs><linearGradient id="sw-gradient-0" x1="0" x2="0" y1="1" y2="0"><stop stop-color="rgba(255, 230.959, 223.237, 1)" offset="0%"/><stop stop-color="rgba(214.338, 101.724, 128.665, 1)" offset="100%"/></linearGradient></defs><path style="transform:translate(0, 0px); opacity:1" fill="url(#sw-gradient-0)" d="M0,196L10,196C20,196,40,196,60,236.8C80,278,100,359,120,351.2C140,343,160,245,180,196C200,147,220,147,240,155.2C260,163,280,180,300,212.3C320,245,340,294,360,261.3C380,229,400,114,420,65.3C440,16,460,33,480,106.2C500,180,520,310,540,375.7C560,441,580,441,600,400.2C620,359,640,278,660,245C680,212,700,229,720,196C740,163,760,82,780,49C800,16,820,33,840,40.8C860,49,880,49,900,114.3C920,180,940,310,960,302.2C980,294,1000,147,1020,114.3C1040,82,1060,163,1080,228.7C1100,294,1120,343,1140,343C1160,343,1180,294,1200,285.8C1220,278,1240,310,1260,310.3C1280,310,1300,278,1320,228.7C1340,180,1360,114,1380,73.5C1400,33,1420,16,1430,8.2L1440,0L1440,490L1430,490C1420,490,1400,490,1380,490C1360,490,1340,490,1320,490C1300,490,1280,490,1260,490C1240,490,1220,490,1200,490C1180,490,1160,490,1140,490C1120,490,1100,490,1080,490C1060,490,1040,490,1020,490C1000,490,980,490,960,490C940,490,920,490,900,490C880,490,860,490,840,490C820,490,800,490,780,490C760,490,740,490,720,490C700,490,680,490,660,490C640,490,620,490,600,490C580,490,560,490,540,490C520,490,500,490,480,490C460,490,440,490,420,490C400,490,380,490,360,490C340,490,320,490,300,490C280,490,260,490,240,490C220,490,200,490,180,490C160,490,140,490,120,490C100,490,80,490,60,490C40,490,20,490,10,490L0,490Z"/><defs><linearGradient id="sw-gradient-1" x1="0" x2="0" y1="1" y2="0"><stop stop-color="rgba(0, 0, 0, 0.68)" offset="0%"/><stop stop-color="rgba(209.784, 124.435, 150.636, 1)" offset="100%"/></linearGradient></defs><path style="transform:translate(0, 50px); opacity:0.9" fill="url(#sw-gradient-1)" d="M0,147L10,179.7C20,212,40,278,60,269.5C80,261,100,180,120,155.2C140,131,160,163,180,171.5C200,180,220,163,240,163.3C260,163,280,180,300,171.5C320,163,340,131,360,130.7C380,131,400,163,420,179.7C440,196,460,196,480,171.5C500,147,520,98,540,98C560,98,580,147,600,163.3C620,180,640,163,660,171.5C680,180,700,212,720,261.3C740,310,760,376,780,408.3C800,441,820,441,840,392C860,343,880,245,900,220.5C920,196,940,245,960,228.7C980,212,1000,131,1020,138.8C1040,147,1060,245,1080,253.2C1100,261,1120,180,1140,171.5C1160,163,1180,229,1200,277.7C1220,327,1240,359,1260,310.3C1280,261,1300,131,1320,138.8C1340,147,1360,294,1380,326.7C1400,359,1420,278,1430,236.8L1440,196L1440,490L1430,490C1420,490,1400,490,1380,490C1360,490,1340,490,1320,490C1300,490,1280,490,1260,490C1240,490,1220,490,1200,490C1180,490,1160,490,1140,490C1120,490,1100,490,1080,490C1060,490,1040,490,1020,490C1000,490,980,490,960,490C940,490,920,490,900,490C880,490,860,490,840,490C820,490,800,490,780,490C760,490,740,490,720,490C700,490,680,490,660,490C640,490,620,490,600,490C580,490,560,490,540,490C520,490,500,490,480,490C460,490,440,490,420,490C400,490,380,490,360,490C340,490,320,490,300,490C280,490,260,490,240,490C220,490,200,490,180,490C160,490,140,490,120,490C100,490,80,490,60,490C40,490,20,490,10,490L0,490Z"/></svg>